#!OML:ASF I:\golf\golf\golf 2\Subject 1\2002-09-07\Subject1.ASF
:FULLY-SPECIFIED
:DEGREES
155
root -5.86559 17.8159 1.80623 -13.4647 78.6009 -30.0187
lowerback 5.68078 2.44995 -4.75697
upperback 3.89927 3.1654 4.08034
thorax 0.374514 1.51564 6.75164
lowerneck -16.1019 1.15643 1.87196
upperneck 38.8133 5.99539 -7.50296
head 17.2408 2.17598 -2.44005
rclavicle 8.34896e-015 8.74653e-015
rhumerus -10.2445 2.12197 -102.243
rradius 33.8076
rwrist -49.1449
rhand -26.8289 -8.64648
rfingers 7.12502
rthumb -0.254795 -38.6261
lclavicle 8.34896e-015 8.74653e-015
lhumerus -5.73178 -70.7443 102.125
lradius 27.1718
lwrist 41.3849
lhand 7.56961 60.4871
lfingers 7.12502
lthumb -147.182 -92.4744
rfemur -32.0757 4.83899 13.9131
rtibia 30.1533
rfoot -9.16982 -4.90015
rtoes -5.02933
lfemur -28.3698 10.3 -7.81802
ltibia 33.4678
lfoot -13.3223 4.42125
ltoes -18.5845
156
root -5.86957 17.8128 1.81617 -12.3994 78.0372 -28.9745
lowerback 5.64618 2.33697 -5.01299
upperback 3.90693 3.00107 3.99252
thorax 0.420072 1.42643 6.81863
lowerneck -16.0384 1.46265 1.89647
upperneck 38.6526 6.45451 -7.58932
head 17.1811 2.34906 -2.39272
rclavicle -2.08724e-015 1.23246e-014
rhumerus -10.6723 2.55394 -102.112
rradius 34.7898
rwrist -50.1651
rhand -27.539 -8.66509
rfingers 7.12502
rthumb -0.940623 -38.6428
lclavicle -2.08724e-015 1.23246e-014
lhumerus -4.91245 -71.8455 101.277
lradius 27.2815
lwrist 41.2102
lhand 8.79006 60.1348
lfingers 7.12502
lthumb -146.022 -93.0765
rfemur -32.2312 5.00669 13.9941
rtibia 30.1159
rfoot -9.11705 -4.4672
rtoes -4.58013
lfemur -28.3339 10.7502 -7.85435
ltibia 33.5903
lfoot -13.1969 4.92516
ltoes -20.0865
157
root -5.87367 17.8065 1.82009 -11.743 77.5775 -28.3342
lowerback 5.67762 2.16987 -5.0769
upperback 3.89513 2.77031 3.86179
thorax 0.429473 1.30896 6.73064
lowerneck -16.0017 1.75891 1.90794
upperneck 38.5281 6.88411 -7.61961
head 17.1425 2.51493 -2.32436
rclavicle -1.35174e-014 -3.65764e-014
rhumerus -11.1848 3.66221 -101.928
rradius 35.9096
rwrist -51.6812
rhand -28.4858 -8.70745
rfingers 7.12502
rthumb -1.85507 -38.6791
lclavicle -1.35174e-014 -3.65764e-014
lhumerus -3.89436 -72.724 100.297
lradius 27.2962
lwrist 40.775
lhand 8.07326 60.8827
lfingers 7.12502
lthumb -146.703 -92.1802
rfemur -32.359 5.00319 14.1186
rtibia 30.0757
rfoot -9.08343 -3.96078
rtoes -3.58172
lfemur -28.3431 11.0483 -7.8582
ltibia 33.7347
lfoot -13.0763 5.46623
ltoes -21.4337
158
root -5.87821 17.8033 1.82059 -11.5804 77.1192 -28.12
lowerback 5.83237 1.97951 -4.96383
upperback 3.90056 2.51292 3.70362
thorax 0.398982 1.18274 6.5098
lowerneck -15.9827 2.09183 1.98647
upperneck 38.4066 7.34103 -7.64069
head 17.1146 2.70187 -2.25892
rclavicle -8.79622e-015 -3.90612e-014
rhumerus -11.4385 3.62434 -101.864
rradius 36.661
rwrist -52.2711
rhand -29.481 -8.46502
rfingers 7.12502
rthumb -2.81622 -38.4262
lclavicle -8.79622e-015 -3.90612e-014
lhumerus -2.76239 -73.4873 99.1884
lradius 27.2676
lwrist 40.2196
lhand 7.37237 60.9624
lfingers 7.12502
lthumb -147.37 -91.96
rfemur -32.389 5.03892 14.3193
rtibia 30.0371
rfoot -9.08852 -3.46573
rtoes -2.64345
lfemur -28.0965 11.1088 -7.64348
ltibia 33.8889
lfoot -13.2716 5.76945
ltoes -21.7016
159
root -5.88158 17.8025 1.83081 -11.1284 76.4904 -27.5683
lowerback 5.97322 1.87301 -5.02321
upperback 3.90618 2.3594 3.542
thorax 0.353625 1.10621 6.37865
lowerneck -15.8681 2.39797 2.08262
upperneck 38.2737 7.74333 -7.64435
head 17.051 2.87562 -2.19976
rclavicle 2.98922e-014 3.98563e-014
rhumerus -11.6361 2.85895 -101.84
rradius 37.3173
rwrist -52.1425
rhand -30.5692 -8.27188
rfingers 7.12502
rthumb -3.86712 -38.2165
lclavicle 2.98922e-014 3.98563e-014
lhumerus -1.905 -74.0789 98.3725
lradius 27.214
lwrist 39.6151
lhand 7.22171 60.7802
lfingers 7.12502
lthumb -147.513 -92.1126
rfemur -32.3988 5.24119 14.5151
rtibia 30.0147
rfoot -9.09525 -2.96702
rtoes -2.23553
lfemur -27.7293 11.4135 -7.44262
ltibia 34.0678
lfoot -13.5041 6.04378
ltoes -22.2851
160
root -5.88433 17.8017 1.85015 -10.5672 75.7145 -26.9574
lowerback 5.94426 1.80338 -5.24642
upperback 3.94584 2.25448 3.41852
thorax 0.424222 1.04647 6.38488
lowerneck -15.762 2.69855 2.15139
upperneck 38.1061 8.14146 -7.65792
head 16.9708 3.04197 -2.14047
rclavicle -2.56929e-014 8.64713e-015
rhumerus -11.9323 2.55567 -101.773
rradius 38.2504
rwrist -52.4407
rhand -31.8407 -8.12818
rfingers 7.12502
rthumb -5.09492 -38.0469
lclavicle -2.56929e-014 8.64713e-015
lhumerus -0.784781 -74.5287 97.3787
lradius 27.1204
lwrist 38.8717
lhand 7.99207 59.4939
lfingers 7.12502
lthumb -146.781 -93.5525
rfemur -32.4872 5.51688 14.7742
rtibia 30.0025
rfoot -9.09715 -2.47961
rtoes -3.19553
lfemur -27.4652 11.9682 -7.22886
ltibia 34.2483
lfoot -13.6628 6.26642
ltoes -22.4213
161
root -5.88704 17.7942 1.86882 -9.99734 75.021 -26.4171
lowerback 5.75759 1.65269 -5.53011
upperback 4.03108 2.04753 3.30386
thorax 0.644126 0.928008 6.44678
lowerneck -15.7407 3.05123 2.2334
upperneck 37.8921 8.61544 -7.70947
head 16.8984 3.23197 -2.08448
rclavicle 7.95139e-015 4.77083e-015
rhumerus -12.1257 2.77823 -101.678
rradius 39.2913
rwrist -53.391
rhand -33.0294 -7.89585
rfingers 7.12502
rthumb -6.24258 -37.7839
lclavicle 7.95139e-015 4.77083e-015
lhumerus 1.07066 -75.1645 95.6392
lradius 27.0738
lwrist 38.139
lhand -5.66225 72.1918
lfingers 7.12502
lthumb -159.843 78.8339
rfemur -32.6581 5.83472 14.9647
rtibia 30.0035
rfoot -9.08128 -2.1441
rtoes -4.5265
lfemur -27.2264 12.6058 -7.13291
ltibia 34.3434
lfoot -13.6878 6.62554
ltoes -24.133
162
root -5.89002 17.7871 1.88143 -9.34955 74.5412 -25.827
lowerback 5.60935 1.44105 -5.7202
upperback 4.08682 1.76215 3.11289
thorax 0.829435 0.773851 6.37558
lowerneck -15.6924 3.40578 2.39318
upperneck 37.6269 9.05937 -7.77453
head 16.7953 3.42075 -2.05354
rclavicle 0 3.69739e-014
rhumerus -12.2027 2.83686 -101.529
rradius 40.2922
rwrist -54.36
rhand -33.8671 -7.74217
rfingers 7.12502
rthumb -7.05129 -37.6047
lclavicle 0 3.69739e-014
lhumerus 3.42527 -76.0928 93.31
lradius 27.1345
lwrist 37.6637
lhand 7.89666 57.8882
lfingers 7.12502
lthumb -146.871 -95.1388
rfemur -32.8229 6.01011 15.0342
rtibia 29.9855
rfoot -9.03359 -1.81532
rtoes -5.06247
lfemur -27.0687 13.0142 -7.14962
ltibia 34.3464
lfoot -13.606 6.99986
ltoes -25.8922
